#!OML:ASF H:\Terrain\Patient Classification 1\Takeo\Monday\TakeoMonday.ASF
:FULLY-SPECIFIED
:DEGREES
662
root 10.054 17.8054 -0.345298 -6.75589 -18.4806 -1.76785
lowerback 3.51698 -0.527138 0.795195
upperback 3.52258 -0.684275 -1.53107
thorax 1.61645 -0.312984 -2.00346
lowerneck -9.51649 1.22812 -0.587663
upperneck 28.7059 2.09608 -1.27592
head 10.7933 0.677383 -0.12148
rclavicle 5.46658e-016 8.74653e-015
rhumerus -15.1361 51.9166 -70.0687
rradius 139.871
rwrist -48.6564
rhand -23.3196 10.1325
rfingers 7.12502
rthumb 3.13446 -19.8242
lclavicle 5.46658e-016 8.74653e-015
lhumerus -36.4769 18.4182 76.2292
lradius 33.5492
lwrist 31.8751
lhand -20.4802 20.7816
lfingers 7.12502
lthumb 5.87624 50.6801
rfemur 6.255 6.43685 21.6465
rtibia 13.2993
rfoot -9.5483 -10.7705
rtoes -2.43104
lfemur 6.01474 4.36802 -18.5941
ltibia 20.3139
lfoot -17.7788 23.4208
ltoes -0.192429
663
root 10.0571 17.8086 -0.362938 -6.74623 -18.214 -1.43989
lowerback 3.76911 -0.508479 0.501905
upperback 3.52036 -0.664983 -1.72346
thorax 1.47505 -0.308328 -2.03456
lowerneck -9.70023 1.38202 0.0331226
upperneck 29.1087 2.33479 -1.76392
head 10.999 0.78919 -0.375724
rclavicle 6.30147e-014 5.56597e-015
rhumerus -15.3687 52.707 -70.9345
rradius 139.207
rwrist -47.0564
rhand -23.444 10.5036
rfingers 7.12502
rthumb 3.01432 -19.4549
lclavicle 6.30147e-014 5.56597e-015
lhumerus -36.492 18.245 76.0694
lradius 33.9604
lwrist 32.1812
lhand -20.3793 20.4019
lfingers 7.12502
lthumb 5.97365 50.2977
rfemur 6.00155 6.27129 21.2655
rtibia 13.5188
rfoot -9.46036 -10.904
rtoes -2.99056
lfemur 5.86067 4.51166 -18.9138
ltibia 20.1713
lfoot -17.1942 23.2642
ltoes -1.19229
664
root 10.0548 17.8159 -0.379913 -6.68502 -17.9754 -1.28421
lowerback 3.99303 -0.405215 0.403592
upperback 3.56636 -0.529547 -1.87596
thorax 1.40237 -0.241141 -2.13826
lowerneck -9.73652 1.53795 0.674181
upperneck 29.2511 2.57345 -2.26633
head 11.0803 0.907181 -0.64012
rclavicle -3.44394e-014 -8.74653e-015
rhumerus -15.4967 53.0828 -71.5298
rradius 138.555
rwrist -45.5093
rhand -23.5454 10.4192
rfingers 7.12502
rthumb 2.91639 -19.5406
lclavicle -3.44394e-014 -8.74653e-015
lhumerus -36.4202 17.776 76.0726
lradius 34.4235
lwrist 32.5709
lhand -20.2829 20.3729
lfingers 7.12502
lthumb 6.06674 50.2661
rfemur 5.74116 6.23152 21.1129
rtibia 13.7557
rfoot -9.69293 -11.0409
rtoes -3.06624
lfemur 5.7364 4.34498 -19.0669
ltibia 19.9994
lfoot -17.239 23.047
ltoes -0.457606
665
root 10.0518 17.8296 -0.395573 -6.60356 -17.738 -1.09456
lowerback 4.27908 -0.257941 0.212912
upperback 3.57827 -0.340248 -1.92501
thorax 1.26336 -0.150411 -2.08549
lowerneck -9.34628 1.74882 0.48079
upperneck 29.0654 2.89388 -2.18406
head 10.9329 1.0493 -0.539854
rclavicle -1.4064e-014 -3.97569e-015
rhumerus -15.8104 53.3927 -71.8378
rradius 137.984
rwrist -43.8413
rhand -23.689 10.7746
rfingers 7.12502
rthumb 2.77774 -19.187
lclavicle -1.4064e-014 -3.97569e-015
lhumerus -36.4728 17.4328 76.2156
lradius 35.1536
lwrist 32.8419
lhand -20.2816 20.8443
lfingers 7.12502
lthumb 6.06798 50.7374
rfemur 5.50774 6.2085 20.9197
rtibia 13.856
rfoot -9.91944 -11.163
rtoes -2.41059
lfemur 5.52441 4.18164 -19.236
ltibia 19.9451
lfoot -17.4159 22.7532
ltoes 0.971333
666
root 10.0518 17.8386 -0.413664 -6.39352 -17.4828 -1.05846
lowerback 4.51672 -0.165044 0.175218
upperback 3.58216 -0.219603 -1.91958
thorax 1.13959 -0.0914151 -2.06184
lowerneck -8.97787 1.89169 -0.109942
upperneck 28.8233 3.12502 -1.86021
head 10.7557 1.13734 -0.296339
rclavicle -5.24295e-014 1.82882e-014
rhumerus -16.2882 53.9139 -72.3339
rradius 137.409
rwrist -41.8018
rhand -23.8608 11.4221
rfingers 7.12502
rthumb 2.61177 -18.5416
lclavicle -5.24295e-014 1.82882e-014
lhumerus -36.5766 17.4587 76.2852
lradius 35.971
lwrist 32.8044
lhand -20.488 21.2139
lfingers 7.12502
lthumb 5.86869 51.1126
rfemur 5.24054 6.0801 20.8567
rtibia 13.8008
rfoot -9.89765 -11.3204
rtoes -2.63187
lfemur 5.13367 4.17016 -19.2518
ltibia 20.0159
lfoot -17.1223 22.599
ltoes 0.419534
667
root 10.0546 17.8377 -0.434453 -6.11156 -17.1077 -1.02882
lowerback 4.6146 -0.136865 0.238833
upperback 3.64218 -0.179654 -2.0292
thorax 1.14818 -0.0686773 -2.21195
lowerneck -9.03082 1.99073 -0.00620055
upperneck 28.8531 3.28704 -1.98444
head 10.7839 1.20856 -0.338982
rclavicle -9.64106e-015 0
rhumerus -16.662 54.4506 -73.1401
rradius 136.751
rwrist -39.5517
rhand -24.2152 11.9586
rfingers 7.12502
rthumb 2.26954 -18.0091
lclavicle -9.64106e-015 0
lhumerus -36.4018 17.2589 76.3348
lradius 36.406
lwrist 32.9548
lhand -20.8372 20.7684
lfingers 7.12502
lthumb 5.53157 50.6762
rfemur 4.95312 5.86843 20.7766
rtibia 13.6392
rfoot -9.71154 -11.491
rtoes -2.9296
lfemur 4.54268 4.12711 -19.2929
ltibia 20.2298
lfoot -16.62 22.5081
ltoes -1.18877
668
root 10.0566 17.8483 -0.459495 -5.7161 -16.7449 -1.21281
lowerback 4.65151 -0.126809 0.483493
upperback 3.73226 -0.156905 -2.11536
thorax 1.2211 -0.0505279 -2.43952
lowerneck -9.03182 2.12714 0.46289
upperneck 28.8417 3.5047 -2.3884
head 10.8002 1.31254 -0.539361
rclavicle 6.75868e-015 -6.36111e-015
rhumerus -16.7881 54.9988 -73.9002
rradius 135.932
rwrist -37.3251
rhand -24.5001 13.2234
rfingers 7.12502
rthumb 1.99441 -16.747
lclavicle 6.75868e-015 -6.36111e-015
lhumerus -36.0115 16.6533 76.419
lradius 36.6267
lwrist 33.4977
lhand -20.8673 20.0925
lfingers 7.12502
lthumb 5.50245 50.0011
rfemur 4.55883 5.77536 20.9518
rtibia 13.5362
rfoot -9.569 -11.7137
rtoes -2.73699
lfemur 3.84839 3.91336 -19.0894
ltibia 20.5331
lfoot -16.6578 22.1808
ltoes -0.606058
669
root 10.0594 17.8585 -0.485175 -5.37653 -16.5331 -1.65328
lowerback 4.87326 -0.106771 0.91888
upperback 3.83258 -0.115543 -2.05233
thorax 1.20298 -0.0212956 -2.62124
lowerneck -8.95221 2.26307 0.526568
upperneck 28.7594 3.73864 -2.5707
head 10.7632 1.40813 -0.588849
rclavicle -1.01877e-014 -1.90833e-014
rhumerus -16.7743 55.6951 -74.356
rradius 135.057
rwrist -35.1924
rhand -24.5502 14.9677
rfingers 7.12502
rthumb 1.94598 -15.0032
lclavicle -1.01877e-014 -1.90833e-014
lhumerus -35.8174 16.3411 76.4966
lradius 37.0066
lwrist 33.6898
lhand -20.7056 20.2057
lfingers 7.12502
lthumb 5.65859 50.1102
rfemur 4.26672 5.6767 21.4061
rtibia 13.4783
rfoot -9.51995 -11.7996
rtoes -2.73874
lfemur 3.33547 3.77371 -18.603
ltibia 20.8683
lfoot -16.7396 21.8998
ltoes -0.275197
670
root 10.0691 17.8534 -0.50341 -5.27888 -16.2419 -1.54652
lowerback 5.09537 -0.0777655 0.996702
upperback 3.9542 -0.0730444 -2.16689
thorax 1.20742 0.00376894 -2.78535
lowerneck -9.06829 2.41935 0.473973
upperneck 28.8876 3.98701 -2.58639
head 10.8394 1.51189 -0.554411
rclavicle 7.95139e-016 7.95139e-016
rhumerus -16.6531 56.2578 -74.6417
rradius 134.161
rwrist -33.1212
rhand -24.5746 16.1084
rfingers 7.12502
rthumb 1.92242 -13.8627
lclavicle 7.95139e-016 7.95139e-016
lhumerus -35.7739 16.1999 76.5375
lradius 37.5123
lwrist 33.5863
lhand -20.2789 21.181
lfingers 7.12502
lthumb 6.07057 51.074
rfemur 4.16416 5.25298 21.1901
rtibia 13.3489
rfoot -9.28767 -11.7086
rtoes -2.0613
lfemur 2.95034 3.77073 -18.7461
ltibia 21.2265
lfoot -16.7044 21.7195
ltoes -1.04081
671
root 10.0778 17.8525 -0.522569 -5.07943 -15.8502 -1.34022
lowerback 5.10023 -0.0866973 1.00429
upperback 4.11495 -0.0822869 -2.36723
thorax 1.37063 0.00465641 -2.99696
lowerneck -9.13142 2.60867 0.712964
upperneck 28.8486 4.281 -2.82712
head 10.855 1.64464 -0.646028
rclavicle -5.56597e-015 -2.38542e-015
rhumerus -16.141 56.6881 -74.923
rradius 133.091
rwrist -31.1034
rhand -24.7505 16.9164
rfingers 7.12502
rthumb 1.75255 -13.0562
lclavicle -5.56597e-015 -2.38542e-015
lhumerus -35.5047 15.9821 76.5032
lradius 37.8139
lwrist 33.5123
lhand -19.8021 21.2345
lfingers 7.12502
lthumb 6.53087 51.1138
rfemur 3.86293 4.80097 20.864
rtibia 13.3538
rfoot -9.04489 -11.7263
rtoes -1.41667
lfemur 2.43846 3.76197 -18.9838
ltibia 21.469
lfoot -16.5987 21.4339
ltoes -1.09517
672
root 10.0775 17.8576 -0.549297 -4.79932 -15.5722 -1.49428
lowerback 5.27487 -0.0923045 1.04692
upperback 4.25983 -0.0872486 -2.3351
thorax 1.42293 0.00436486 -2.98804
lowerneck -9.0617 2.7886 0.975791
upperneck 28.6376 4.57367 -3.15887
head 10.7839 1.77322 -0.776064
rclavicle 1.44119e-014 1.03368e-014
rhumerus -15.5979 57.2779 -75.2042
rradius 132.036
rwrist -29.2776
rhand -25.0685 17.7381
rfingers 7.12502
rthumb 1.44545 -12.2368
lclavicle 1.44119e-014 1.03368e-014
lhumerus -35.2707 15.8378 76.5822
lradius 38.1329
lwrist 33.621
lhand -19.9257 20.5333
lfingers 7.12502
lthumb 6.41152 50.4162
rfemur 3.47375 4.64411 21.0213
rtibia 13.5069
rfoot -9.1469 -11.823
rtoes -2.10495
lfemur 1.9849 3.62344 -18.8062
ltibia 21.5601
lfoot -16.4343 21.2418
ltoes -0.707952
673
root 10.0743 17.8631 -0.577442 -4.65147 -15.3276 -1.33759
lowerback 5.57301 -0.0759465 0.762223
upperback 4.39474 -0.0758401 -2.42728
thorax 1.39715 0.00526863 -2.92375
lowerneck -9.15469 2.94126 1.00036
upperneck 28.6453 4.72291 -2.92468
head 10.803 1.87058 -0.676489
rclavicle -4.09496e-014 1.51076e-014
rhumerus -14.9925 57.8048 -75.3441
rradius 131.034
rwrist -27.6557
rhand -25.5359 18.7236
rfingers 7.12502
rthumb 0.994007 -11.2538
lclavicle -4.09496e-014 1.51076e-014
lhumerus -35.0989 15.5124 76.6385
lradius 38.6499
lwrist 34.0402
lhand -20.3497 20.4182
lfingers 7.12502
lthumb 6.00224 50.3132
rfemur 3.16881 4.57952 20.8585
rtibia 13.5759
rfoot -9.28893 -11.899
rtoes -2.29541
lfemur 1.5915 3.34236 -18.9928
ltibia 21.6457
lfoot -16.3923 21.2838
ltoes -0.557131
674
root 10.0722 17.8701 -0.607379 -4.47209 -15.0414 -1.16602
lowerback 5.84518 -0.0466406 0.683154
upperback 4.51429 -0.0394263 -2.6887
thorax 1.37246 0.0257026 -3.15208
lowerneck -9.11017 3.09783 1.22268
upperneck 28.5516 4.84472 -2.73098
head 10.7618 1.9751 -0.630906
rclavicle 5.71506e-014 -6.36111e-015
rhumerus -14.4425 58.1238 -75.6281
rradius 129.935
rwrist -26.0347
rhand -26.152 19.7893
rfingers 7.12502
rthumb 0.398956 -10.19
lclavicle 5.71506e-014 -6.36111e-015
lhumerus -34.8637 14.9882 76.5088
lradius 39.0938
lwrist 34.5041
lhand -20.4533 20.5375
lfingers 7.12502
lthumb 5.90218 50.4353
rfemur 2.81389 4.48874 20.6718
rtibia 13.6217
rfoot -9.18569 -12.0762
rtoes -1.81569
lfemur 1.14325 3.05097 -19.2027
ltibia 21.7307
lfoot -16.2616 21.3655
ltoes -0.994034
675
root 10.0694 17.8733 -0.640675 -4.23873 -14.7322 -1.33844
lowerback 6.34211 0.00745036 0.911057
upperback 4.51944 0.0398505 -2.76519
thorax 1.10813 0.0690674 -3.36494
lowerneck -8.75799 3.22003 1.50721
upperneck 28.3224 5.0523 -3.06924
head 10.6293 2.07014 -0.782082
rclavicle 7.23576e-014 5.56597e-015
rhumerus -14.633 58.441 -76.3911
rradius 128.843
rwrist -24.4321
rhand -26.5871 20.6149
rfingers 7.12502
rthumb -0.0213237 -9.36483
lclavicle 7.23576e-014 5.56597e-015
lhumerus -34.8344 14.6137 76.4404
lradius 39.4818
lwrist 34.7782
lhand -20.2807 21.2793
lfingers 7.12502
lthumb 6.06878 51.1724
rfemur 2.45764 4.3115 20.868
rtibia 13.7168
rfoot -9.07285 -12.267
rtoes -1.73492
lfemur 0.741018 2.76784 -19.0191
ltibia 21.7997
lfoot -16.0583 21.3057
ltoes -1.46822
676
root 10.0667 17.8777 -0.6779 -3.98591 -14.3939 -1.48102
lowerback 6.40353 0.0449118 1.14508
upperback 4.84011 0.105195 -2.85512
thorax 1.41263 0.115115 -3.59518
lowerneck -8.79382 3.31049 1.45321
upperneck 28.1362 5.18357 -3.05171
head 10.5685 2.13053 -0.750098
rclavicle 2.20651e-014 1.90833e-014
rhumerus -13.9586 58.5559 -76.4819
rradius 127.708
rwrist -22.8963
rhand -26.68 21.5
rfingers 7.12502
rthumb -0.111042 -8.47975
lclavicle 2.20651e-014 1.90833e-014
lhumerus -34.2177 14.5225 76.4629
lradius 39.7535
lwrist 34.6946
lhand -20.2247 21.9853
lfingers 7.12502
lthumb 6.12288 51.8768
rfemur 2.1212 4.02852 21.0166
rtibia 13.6974
rfoot -9.0149 -12.3523
rtoes -1.48631
lfemur 0.197828 2.53997 -18.8376
ltibia 22.0217
lfoot -15.9458 21.1117
ltoes -1.20982
